<?xml version="1.0" standalone="no"?>
<!DOCTYPE svg PUBLIC "-//W3C//DTD SVG 20010904//EN"
 "http://www.w3.org/TR/2001/REC-SVG-20010904/DTD/svg10.dtd">
<svg version="1.0" xmlns="http://www.w3.org/2000/svg"
 width="500.000000pt" height="500.000000pt" viewBox="0 0 500.000000 500.000000"
 preserveAspectRatio="xMidYMid meet">
<metadata>
Created by potrace 1.16, written by Peter Selinger 2001-2019
</metadata>
<g transform="translate(0.000000,500.000000) scale(0.500000,0.500000)"
fill="#000000" stroke="none">
<path d="M2330 3715 l-33 -34 25 -71 c14 -38 22 -70 19 -70 -3 0 -37 9 -76 20
l-70 20 -38 -38 -39 -39 64 -17 c35 -10 92 -26 128 -37 l66 -19 28 -96 29 -95
39 39 39 39 -68 216 c-37 120 -70 217 -73 217 -4 0 -21 -16 -40 -35z"/>
<path d="M2073 3458 c-17 -18 -28 -39 -26 -45 3 -8 -4 -13 -15 -13 -30 0 -79
-46 -92 -86 -18 -52 -5 -99 40 -144 46 -46 99 -59 154 -36 37 15 76 67 76 100
0 14 3 16 13 7 10 -8 21 -3 45 22 l32 33 -98 97 -98 97 -31 -32z"/>
<path d="M1815 3200 l-29 -30 112 -113 c100 -100 132 -147 102 -147 -13 0 -13
-23 2 -55 15 -34 31 -32 73 10 27 28 35 44 35 72 0 33 -11 48 -127 165 -70 70
-130 128 -133 128 -4 0 -19 -14 -35 -30z"/>
<path d="M1683 3070 c-35 -21 -53 -48 -53 -81 0 -17 -3 -19 -13 -10 -10 8 -21
3 -45 -22 l-32 -33 98 -97 98 -97 32 33 32 33 -60 59 c-61 60 -75 96 -48 123
27 27 62 13 123 -48 l61 -60 32 33 32 33 -79 77 c-88 86 -116 95 -178 57z"/>
<path d="M2308 2965 c-28 -16 -68 -72 -68 -97 0 -18 32 -48 51 -48 8 0 39 16
69 35 30 19 59 34 65 32 36 -12 -7 -83 -66 -107 -32 -14 -38 -30 -11 -30 44 0
122 77 122 121 0 20 -31 49 -52 49 -9 0 -39 -16 -68 -36 -51 -35 -80 -39 -80
-10 0 20 47 74 70 81 22 7 27 25 8 25 -7 -1 -25 -7 -40 -15z"/>
<path d="M3144 2888 c-82 -41 -84 -44 -147 -152 l-28 -49 58 -61 c72 -75 79
-80 129 -105 51 -26 118 -36 179 -27 56 9 65 26 66 127 2 91 -36 170 -118 251
l-58 56 -81 -40z m96 -109 c0 -39 0 -39 40 -39 53 0 52 -18 -5 -71 -25 -23
-45 -46 -45 -51 0 -6 11 -24 25 -40 21 -25 23 -33 13 -45 -10 -13 -25 -1 -99
78 -78 84 -97 119 -66 119 5 0 34 23 64 51 29 27 58 47 63 44 6 -3 10 -24 10
-46z"/>
<path d="M1463 2848 c-17 -18 -29 -37 -27 -43 2 -5 -14 -17 -35 -26 -51 -22
-76 -61 -76 -120 0 -54 22 -90 75 -126 72 -50 181 -9 196 74 5 25 9 31 18 23
9 -7 22 0 44 23 l32 33 -98 97 -98 97 -31 -32z"/>
<path d="M2134 2791 c-37 -22 -59 -70 -50 -107 4 -15 20 -39 36 -55 50 -51
131 -35 165 31 19 37 19 60 0 60 -9 0 -15 -9 -15 -23 0 -33 -40 -67 -78 -67
-17 0 -33 4 -36 8 -3 5 19 33 49 62 30 30 55 60 55 68 0 13 -57 42 -82 42 -7
0 -27 -9 -44 -19z"/>
<path d="M1093 2699 c-86 -42 -127 -120 -103 -193 24 -73 93 -94 193 -60 57
19 101 16 105 -9 6 -31 -26 -65 -79 -84 -50 -18 -50 -18 -44 -53 11 -56 15
-59 65 -44 59 17 122 72 150 130 20 39 21 51 12 83 -7 20 -25 50 -42 66 -38
36 -92 38 -179 6 -68 -26 -91 -23 -91 12 0 27 32 61 72 76 27 10 27 11 14 48
-7 20 -17 38 -22 40 -5 2 -28 -6 -51 -18z"/>
<path d="M2636 2413 c-14 -21 -39 -47 -56 -56 -18 -11 -30 -26 -30 -39 0 -25
46 -108 60 -108 5 0 0 -15 -11 -34 -11 -19 -24 -48 -28 -64 -9 -30 -9 -30 17
-16 15 7 66 31 113 52 104 47 128 76 174 202 32 88 32 90 11 84 -11 -3 -36
-15 -54 -26 l-33 -20 -47 25 c-81 43 -88 43 -116 0z"/>
<path d="M1506 2162 c-3 -5 5 -24 18 -43 67 -100 68 -98 -2 -50 -76 51 -100
45 -60 -16 69 -106 69 -102 -3 -51 -49 36 -68 45 -77 36 -9 -9 8 -25 68 -65
44 -29 84 -53 89 -53 25 0 20 26 -13 75 -20 30 -36 57 -36 60 0 3 24 -10 52
-30 95 -64 107 -43 36 64 -52 79 -62 89 -72 73z"/>
<path d="M2305 1830 c-4 -6 3 -22 15 -35 29 -31 25 -37 -110 -169 l-111 -110
-74 74 c-41 41 -75 79 -75 85 0 6 29 39 65 75 35 35 61 68 58 73 -7 12 -153
-133 -153 -153 0 -8 38 -53 84 -99 68 -68 85 -91 90 -122 4 -28 11 -39 24 -39
9 0 91 74 181 164 170 170 186 196 121 196 -20 0 -42 11 -69 35 -25 23 -42 32
-46 25z"/>
</g>
</svg>
